<svg xmlns="http://www.w3.org/2000/svg" height="20px" viewBox="0 -960 960 960" width="20px" fill="#e3e3e3"><path d="M357-291q-46 51-102.5 50.5T156-273q-42-32-57-85.5T120-470l64-103q-19-20-29.5-44.99Q144-642.98 144-672q0-60 42-102t102-42q60 0 102 42t42 102q0 60-42 102t-102 42q-10.67 0-21.33-2-10.67-2-21.67-5l-64 103q-19 30-10.5 57.5T201-330q22 17 50.5 17t52.5-26l299-330q46-51 102-51t98 32q42 32 57.5 85.5T840-490l-64 103q19 20 29.5 44.99Q816-317.02 816-288q0 60-42 102t-102 42q-60 0-102-42t-42-102q0-60 42-102t102-42q11.08 0 21.54 2 10.46 2 21.46 5l64-103q19-30 10.5-58T759-631q-22-17-51-16.5T656-621L357-291Zm-18-330.21q21-21.21 21-51T338.79-723q-21.21-21-51-21T237-722.79q-21 21.21-21 51T237.21-621q21.21 21 51 21T339-621.21Zm384 384q21-21.21 21-51T722.79-339q-21.21-21-51-21T621-338.79q-21 21.21-21 51T621.21-237q21.21 21 51 21T723-237.21ZM288-672Zm384 384Z"/></svg>